<svg xmlns="http://www.w3.org/2000/svg" x="0px" y="0px"
width="30" height="30"
viewBox="0 0 172 172"
style=" fill:#fa314a;"><g fill="none" fill-rule="nonzero" stroke="none" stroke-width="1" stroke-linecap="butt" stroke-linejoin="miter" stroke-miterlimit="10" stroke-dasharray="" stroke-dashoffset="0" font-family="none" font-weight="none" font-size="none" text-anchor="none" style="mix-blend-mode: normal"><path d="M0,172v-172h172v172z" fill="none"></path><g fill="#da1c1c"><path d="M51.51042,11.38828c-3.16203,0.04943 -5.68705,2.6496 -5.64375,5.81172v5.73333h-5.73333c-2.06765,-0.02924 -3.99087,1.05709 -5.03322,2.843c-1.04236,1.78592 -1.04236,3.99474 0,5.78066c1.04236,1.78592 2.96558,2.87225 5.03322,2.843h5.73333v5.73333c-0.02924,2.06765 1.05709,3.99087 2.843,5.03322c1.78592,1.04236 3.99474,1.04236 5.78066,0c1.78592,-1.04236 2.87225,-2.96558 2.843,-5.03322v-5.73333h5.73333c2.06765,0.02924 3.99087,-1.05709 5.03322,-2.843c1.04236,-1.78592 1.04236,-3.99474 0,-5.78066c-1.04236,-1.78592 -2.96558,-2.87225 -5.03322,-2.843h-5.73333v-5.73333c0.02122,-1.54972 -0.58581,-3.04203 -1.68279,-4.1369c-1.09698,-1.09487 -2.59045,-1.69903 -4.14013,-1.67482zM152.75078,17.23359l-16.6625,4.54635c-2.494,0.68227 -4.22161,2.94604 -4.22161,5.53177v26.62865c0,7.14947 -17.2,1.86728 -17.2,16.79688c0,5.73333 3.39655,9.52942 9.93255,9.52942c10.09067,0 13.00078,-7.66699 13.00078,-16.18099v-27.46849l15.76667,-4.71432c0.83133,-0.16627 1.43333,-0.89834 1.43333,-1.74687v-11.24271c0,-1.0836 -0.98855,-1.89182 -2.04922,-1.67969zM81.11771,45.87786c-20.9668,8.11267 -35.25104,29.0207 -35.25104,52.85417c0,30.96573 25.10224,56.06797 56.06797,56.06797c23.83347,0 44.74696,-14.27877 52.86536,-35.23984c-6.278,2.43093 -13.69586,3.2026 -20.82812,3.2026c-30.96573,0 -56.05677,-25.10224 -56.05677,-56.06797c0,-7.13226 0.77167,-14.54466 3.20261,-20.81692zM22.84375,51.52161c-3.16203,0.04943 -5.68705,2.6496 -5.64375,5.81172c-2.06765,-0.02924 -3.99087,1.05709 -5.03322,2.843c-1.04236,1.78592 -1.04236,3.99474 0,5.78066c1.04236,1.78592 2.96558,2.87225 5.03322,2.843c-0.02924,2.06765 1.05709,3.99087 2.843,5.03322c1.78592,1.04236 3.99474,1.04236 5.78066,0c1.78592,-1.04236 2.87225,-2.96558 2.843,-5.03322c2.06765,0.02924 3.99087,-1.05709 5.03322,-2.843c1.04236,-1.78592 1.04236,-3.99474 0,-5.78066c-1.04236,-1.78592 -2.96558,-2.87225 -5.03322,-2.843c0.02122,-1.54972 -0.58581,-3.04203 -1.68279,-4.1369c-1.09698,-1.09487 -2.59045,-1.69903 -4.14013,-1.67482z"></path></g></g></svg>