<svg xmlns="http://www.w3.org/2000/svg" x="0px" y="0px"
width="24" height="24"
viewBox="0 0 172 172"
style=" fill:#000000;"><g fill="none" fill-rule="nonzero" stroke="none" stroke-width="1" stroke-linecap="butt" stroke-linejoin="miter" stroke-miterlimit="10" stroke-dasharray="" stroke-dashoffset="0" font-family="none" font-weight="none" font-size="none" text-anchor="none" style="mix-blend-mode: normal"><path d="M0,172v-172h172v172z" fill="none"></path><g fill="#ecf0f1"><path d="M86,14.33333c-39.51676,0 -71.66667,32.14993 -71.66667,71.66667c0,39.51673 32.1499,71.66667 71.66667,71.66667c39.51676,0 71.66667,-32.14993 71.66667,-71.66667c0,-39.51673 -32.1499,-71.66667 -71.66667,-71.66667zM86,25.08333c33.70704,0 60.91667,27.20965 60.91667,60.91667c0,27.46754 -18.07097,50.60569 -43,58.23616v-18.32959c0,-6.84447 -3.94412,-12.71402 -9.6442,-15.63509c11.24468,-2.15126 20.501,-8.51078 24.85769,-17.07837c4.35668,-8.56759 3.27838,-18.29047 -2.89577,-26.11059c1.58937,-4.89229 3.36483,-13.47344 -0.85384,-20.22624c-8.13372,0 -13.38214,5.57536 -15.88705,9.04232c-4.28213,-1.40674 -8.8644,-2.13638 -13.49349,-2.1486c-4.63207,0.00411 -9.2192,0.72664 -13.50749,2.1276c-2.51098,-3.46858 -7.7552,-9.02132 -15.87305,-9.02132c-4.84133,7.74948 -1.8485,16.08338 -0.24495,19.48438c-6.59473,7.7902 -7.99132,17.67332 -3.73692,26.4447c4.2544,8.77138 13.61814,15.31428 25.05496,17.50712c-4.68034,2.41225 -8.18562,6.7895 -9.25928,12.10075h-4.71012c-4.64758,0 -6.45341,-1.88847 -8.96533,-5.07406c-2.47967,-3.18558 -5.14595,-5.32618 -8.34945,-6.21484c-1.72717,-0.18275 -2.89074,1.13099 -1.38574,2.29557c5.08475,3.4615 5.43569,9.12686 7.47461,12.83561c1.85617,3.33967 5.65914,6.34782 9.95915,6.34782h5.62695v11.65283c-24.92903,-7.63047 -43,-30.76862 -43,-58.23616c0,-33.70702 27.20963,-60.91667 60.91667,-60.91667z"></path></g></g></svg>