<svg xmlns="http://www.w3.org/2000/svg" x="0px" y="0px"
width="24" height="24"
viewBox="0 0 172 172"
style=" fill:#000000;"><g fill="none" fill-rule="nonzero" stroke="none" stroke-width="1" stroke-linecap="butt" stroke-linejoin="miter" stroke-miterlimit="10" stroke-dasharray="" stroke-dashoffset="0" font-family="none" font-weight="none" font-size="none" text-anchor="none" style="mix-blend-mode: normal"><path d="M0,172v-172h172v172z" fill="none"></path><g fill="#ecf0f1"><path d="M59.125,17.91667c-22.69544,0 -41.20833,18.5129 -41.20833,41.20833v53.75c0,22.69238 18.51225,41.20833 41.20833,41.20833h53.75c22.69303,0 41.20833,-18.51531 41.20833,-41.20833v-53.75c0,-22.69608 -18.51595,-41.20833 -41.20833,-41.20833zM59.125,28.66667h53.75c16.88195,0 30.45833,13.57292 30.45833,30.45833v53.75c0,16.88131 -13.57703,30.45833 -30.45833,30.45833h-53.75c-16.88542,0 -30.45833,-13.57638 -30.45833,-30.45833v-53.75c0,-16.88606 13.57227,-30.45833 30.45833,-30.45833zM121.83333,43c-3.95958,0 -7.16667,3.20708 -7.16667,7.16667c0,3.95958 3.20708,7.16667 7.16667,7.16667c3.95958,0 7.16667,-3.20708 7.16667,-7.16667c0,-3.95958 -3.20708,-7.16667 -7.16667,-7.16667zM86,50.16667c-19.72561,0 -35.83333,16.10772 -35.83333,35.83333c0,19.72561 16.10772,35.83333 35.83333,35.83333c19.72561,0 35.83333,-16.10772 35.83333,-35.83333c0,-19.72561 -16.10772,-35.83333 -35.83333,-35.83333zM86,60.91667c13.91472,0 25.08333,11.16861 25.08333,25.08333c0,13.91472 -11.16861,25.08333 -25.08333,25.08333c-13.91472,0 -25.08333,-11.16861 -25.08333,-25.08333c0,-13.91472 11.16861,-25.08333 25.08333,-25.08333z"></path></g></g></svg>