<svg xmlns="http://www.w3.org/2000/svg" x="0px" y="0px"
width="24" height="24"
viewBox="0 0 172 172"
style=" fill:#000000;"><g fill="none" fill-rule="nonzero" stroke="none" stroke-width="1" stroke-linecap="butt" stroke-linejoin="miter" stroke-miterlimit="10" stroke-dasharray="" stroke-dashoffset="0" font-family="none" font-weight="none" font-size="none" text-anchor="none" style="mix-blend-mode: normal"><path d="M0,172v-172h172v172z" fill="none"></path><g fill="#ecf0f1"><path d="M114.66667,21.5c-19.46258,0 -35.2577,15.72629 -35.67936,35.09147c-17.20803,-2.0639 -28.41361,-8.49774 -35.28744,-14.83724c-7.62293,-7.03039 -10.03613,-13.27653 -10.03613,-13.27653c-0.71735,-1.80745 -2.35492,-3.08657 -4.28229,-3.34491c-1.92736,-0.25834 -3.84398,0.54439 -5.01198,2.09914c0,0 -6.4528,8.6014 -6.4528,21.14307c0,7.1702 2.26393,12.47557 4.96208,16.97184c-0.09939,-0.04655 -0.76986,-0.27995 -0.76986,-0.27995c-1.74446,-0.87099 -3.82379,-0.72907 -5.43374,0.37086c-1.60994,1.09993 -2.49805,2.98541 -2.32082,4.92715c0,0 2.06882,15.12211 16.28597,26.17513l-1.48372,0.37093c-1.6327,0.40759 -2.98031,1.55625 -3.64138,3.10378c-0.66107,1.54753 -0.55929,3.31532 0.275,4.77676c0,0 2.41082,4.07812 7.46061,8.37044c2.99407,2.54496 7.39232,5.17108 12.57666,7.60059c-6.36683,2.32654 -15.86071,4.65413 -29.70247,4.65413c-2.10958,-0.00024 -4.0243,1.23349 -4.89589,3.1546c-0.87159,1.92111 -0.53891,4.17446 0.85065,5.76174c0,0 4.10733,4.52475 12.22672,8.46143c8.1194,3.93668 20.62664,7.70557 38.40186,7.70557c31.24558,0 53.69502,-14.98854 67.7054,-33.98568c14.01039,-18.99713 20.08626,-41.76201 20.08626,-59.18099c0,-1.10529 -0.06902,-2.19502 -0.16797,-3.27539c7.5653,-7.2897 10.40421,-12.76994 10.54004,-13.03857c0.68083,-1.36525 0.4272,-3.0049 -0.62988,-4.09424c-1.0535,-1.09292 -2.68649,-1.40069 -4.07324,-0.76286l-0.58089,0.26595c-0.49808,0.22933 -0.99606,0.46012 -1.49772,0.68587c1.45842,-2.32558 2.60928,-4.81079 3.40837,-7.38363c0.44433,-1.419 -0.03544,-2.97394 -1.21078,-3.89128c-1.17533,-0.91733 -2.79416,-1.01554 -4.06624,-0.23796c-4.37972,2.6618 -8.57784,4.52524 -12.94759,5.77393c-6.43069,-6.10022 -15.08696,-9.87516 -24.60742,-9.87516zM114.66667,32.25c13.91472,0 25.08333,11.16861 25.08333,25.08333c0,14.83102 -5.56996,35.96198 -17.98665,52.79818c-12.4167,16.8362 -31.17559,29.61849 -59.05501,29.61849c-13.49197,0 -22.46682,-2.44046 -29.19157,-5.08106c7.04421,-1.09391 13.10938,-2.55371 17.46875,-4.24121c7.55964,-2.92631 11.63884,-6.30583 11.63883,-6.30583c1.52533,-1.30914 2.19282,-3.35991 1.7303,-5.31606c-0.46252,-1.95616 -1.97778,-3.49082 -3.92789,-3.97821c-9.75643,-2.43911 -16.01375,-6.38412 -19.93929,-9.6722l5.60596,-1.39974c2.27511,-0.5678 3.91966,-2.54482 4.06373,-4.88528c0.14408,-2.34046 -1.24557,-4.50426 -3.43385,-5.34682c-11.62835,-4.47244 -16.5114,-10.79743 -19.00846,-16.097c3.03859,0.62904 5.86778,1.40674 9.91016,1.40674c2.49204,-0.00203 4.65595,-1.71656 5.22775,-4.14212c0.5718,-2.42556 -0.59845,-4.92608 -2.82719,-6.04098c0,0 -11.35889,-5.22523 -11.35889,-20.27523c0,-2.70202 0.74836,-4.41339 1.29476,-6.4598c1.87472,2.5194 3.41977,4.94974 6.4458,7.74056c9.22589,8.50874 24.47492,17.18471 47.51416,18.42057c1.47332,0.07861 2.91418,-0.4518 3.98488,-1.46691c1.0707,-1.01511 1.6771,-2.42568 1.67707,-3.90109v-5.375c0,-13.91472 11.16861,-25.08333 25.08333,-25.08333z"></path></g></g></svg>