<svg xmlns="http://www.w3.org/2000/svg" x="0px" y="0px"
width="25" height="25"
viewBox="0 0 172 172"
style=" fill:#000000;"><g fill="none" fill-rule="nonzero" stroke="none" stroke-width="1" stroke-linecap="butt" stroke-linejoin="miter" stroke-miterlimit="10" stroke-dasharray="" stroke-dashoffset="0" font-family="none" font-weight="none" font-size="none" text-anchor="none" style="mix-blend-mode: normal"><path d="M0,172v-172h172v172z" fill="none"></path><g fill="#ffffff"><path d="M91.50265,6.88c-2.52267,0 -4.37337,0.88634 -5.87219,2.38516l-0.04703,0.04703l-42.36844,45.72781h-26.015c-5.66036,0 -10.32,4.65963 -10.32,10.32v41.28c0,5.66037 4.65964,10.32 10.32,10.32h26.015l42.36844,45.72781l0.04703,0.04703c1.57255,1.57255 3.92286,2.38515 5.87219,2.38515c4.472,0 8.25735,-3.78535 8.25735,-8.25735v-141.72531c0,-4.472 -3.78535,-8.25734 -8.25735,-8.25734zM91.50265,13.76c1.032,0 1.37735,0.34534 1.37735,1.37734v141.72531c0,1.032 -0.34535,1.37735 -1.37735,1.37735c-0.7915,0 -0.53074,0.10509 -0.99437,-0.36281l-42.34828,-45.70765v-52.33906l42.34828,-45.70766c-0.09335,0.10447 0.76823,-0.36281 0.99437,-0.36281zM136.56531,35.77735l-3.78266,5.84531c15.136,8.944 25.45735,25.45735 25.45735,44.37735c0,18.92 -10.32135,35.43335 -25.45735,44.37735l3.78266,5.84531c17.2,-10.32 28.55469,-28.89465 28.55469,-50.22265c0,-21.328 -11.35469,-39.90265 -28.55469,-50.22265zM124.87469,52.97735l-3.78937,5.50265c9.976,5.16 16.51469,15.48 16.51469,27.52c0,12.04 -6.88269,22.016 -16.51469,27.52l3.78937,5.84531c11.696,-6.88 19.60531,-19.26131 19.60531,-33.36531c0,-14.104 -7.90931,-26.48665 -19.60531,-33.02265zM17.2,61.92h24.08v48.16h-24.08c-1.90764,0 -3.44,-1.53237 -3.44,-3.44v-41.28c0,-1.90763 1.53236,-3.44 3.44,-3.44zM113.52,70.17735l-4.12531,5.84531c4.128,1.032 7.56531,5.16135 7.56531,9.97735c0,4.816 -3.43731,8.94535 -7.56531,9.97735l4.12531,5.84531c6.192,-2.752 10.66265,-8.59865 10.66265,-15.82265c0,-7.224 -4.47065,-13.41465 -10.66265,-15.82265z"></path></g></g></svg>